PathFileType	4	(X/Y/Z)	Patient4_TMGait_0pt6_02_left_06.trc.trc
DataRate	CameraRate	NumFrames	NumMarkers	Units	OrigDataRate	OrigDataStartFrame	OrigNumFrames
81.871345029240	81.871345029240	5	33	mm	81.871345029240	124	       141
Frame#	Time	Sacral			L.Shoulder			Chest			R.Shoulder			Neck			R.ASIS			L.ASIS			R.Thigh.Superior			R.Thigh.Lateral			R.Thigh.Inferior			R.Patella			L.Thigh.Superior			L.Thigh.Lateral			L.Thigh.Inferior			L.Patella			L.Shank.Superior			L.Shank.Lateral			L.Shank.Inferior			R.Shank.Superior			R.Shank.Lateral			R.Shank.Inferior			R.Heel			R.Midfoot.Superior			R.Midfoot.Lateral			R.Toe			L.Heel			L.Midfoot.Lateral			L.Midfoot.Superior			L.Toe			L.Elbow			L.Wrist			R.Elbow			R.Wrist			
		X1	Y1	Z1	X2	Y2	Z2	X3	Y3	Z3	X4	Y4	Z4	X5	Y5	Z5	X6	Y6	Z6	X7	Y7	Z7	X8	Y8	Z8	X9	Y9	Z9	X10	Y10	Z10	X11	Y11	Z11	X12	Y12	Z12	X13	Y13	Z13	X14	Y14	Z14	X15	Y15	Z15	X16	Y16	Z16	X17	Y17	Z17	X18	Y18	Z18	X19	Y19	Z19	X20	Y20	Z20	X21	Y21	Z21	X22	Y22	Z22	X23	Y23	Z23	X24	Y24	Z24	X25	Y25	Z25	X26	Y26	Z26	X27	Y27	Z27	X28	Y28	Z28	X29	Y29	Z29	X30	Y30	Z30	X31	Y31	Z31	X32	Y32	Z32	X33	Y33	Z33	

124	8.732357142857	719.876935244900	1000.898203698672	508.715677078223	864.500048005208	1433.368353399230	322.146626455984	993.627560881805	1359.304292184933	459.876533203342	939.426796019894	1425.836035672752	647.319819327741	874.794442256226	1485.611920577051	478.545748924616	953.811442140384	932.918555120075	599.860239430098	912.782582172512	952.497648517619	327.786095769911	945.166910071049	719.842324719934	576.523188980093	839.001657975749	629.440001537816	641.841093439390	894.718080243193	561.031133011313	561.447027135075	872.616417705928	475.846194810016	566.100720580174	988.619337693279	765.032960179699	354.285830010663	930.557939549920	632.496336602435	288.115774891986	1040.026345867452	578.378028235834	340.947637318551	1065.723369944293	513.754160800721	339.161248092960	1052.673555555224	440.867601820758	333.646981180063	988.062608575842	305.619841459551	297.671653910388	1085.855174028952	214.488514835637	347.518595064930	831.627065709301	394.138310311371	574.321445030550	747.122081177513	302.137720781994	638.599805524456	772.684471670607	202.237549849793	573.019217706982	621.754450735002	44.405247781437	543.231350048362	794.220789427734	96.564828807024	576.203611768337	705.932946815161	36.543318833662	615.833646030279	914.215405197349	41.509408004552	601.936598612300	1014.140176207559	38.547310031106	402.597581281613	1078.508602386038	41.473770219410	314.379392577565	1150.894350193029	117.792274970398	325.985570168151	1280.889349187223	86.834826098397	285.784340828771	715.399404135614	1113.251082525218	223.563668939681	682.122200835349	855.342401169981	217.805241505496	1054.587757424031	1099.117661202794	749.439504641630	1275.387653380217	1185.211611840507	673.792484074109	
125	8.744571428571	721.420906860492	999.681142664215	505.446034351612	865.173540505430	1432.013868768573	318.829422445686	994.203229005197	1358.590932404345	457.061014216490	939.152818467604	1425.159791055332	644.303070465002	874.992178577161	1484.606790658981	475.130439048706	955.030219205198	931.739711229886	597.760131226695	915.002632625319	951.191941889908	325.544818127947	946.026268119185	718.489691555950	574.896604207361	839.065203927160	628.580338540723	639.791829761694	894.962817991394	559.595379733396	559.865005820867	871.990524879810	473.892502067770	564.386292330354	990.042049816022	762.509708276200	352.626796536223	929.975646742231	630.445012199313	287.646128512765	1038.900180022832	575.756181455335	340.913615928762	1063.058825657138	510.371546707154	339.786815304018	1049.855146399343	437.410338866463	333.937191171692	983.943263982228	302.621184794712	298.646282757420	1080.688297991775	210.780518926480	349.093610291837	829.659146652679	392.767718228429	572.900780444670	743.533248616934	302.392591522509	637.485558025463	767.423757959868	201.814562381731	572.425845904898	614.455084037142	45.156273450401	543.383656999842	787.167173203660	96.610040458469	576.279244791449	698.662287079856	36.736148373359	615.847937175796	907.000822607394	40.993066479865	602.053181786888	1005.740086515494	37.449490752869	404.510331164331	1070.054721935695	39.118319501889	316.150888341604	1144.831222465839	112.873375476033	328.490261250190	1274.035439906264	77.838024631996	287.934910644678	715.477579052226	1112.173894443149	220.963427572289	683.593210509223	853.877275007281	215.632189510184	1052.948014716241	1098.033122551137	747.660163331085	1274.048905357353	1184.300190726661	672.985035398232	
126	8.756785714286	722.886333232665	998.704955741246	502.116196297965	865.956840909619	1430.807009505162	315.370512222296	994.879909496918	1358.027108981016	454.121995541852	938.998139728740	1424.683181218129	641.144987614288	875.337211791458	1483.810005054573	471.555645072916	956.279963377145	930.707115570421	595.500119996137	917.155534871841	950.133454674213	323.180385476510	946.996825190551	717.272357809308	573.051961361999	839.401289805968	627.758090962236	637.584861708369	895.550264304504	558.251748580650	558.102351121754	871.829580691213	471.878110789338	562.625057611873	991.429860902300	760.369883696168	350.893719366558	929.600858421674	628.954867501292	286.838557238442	1037.911150267957	573.643708632455	340.684404736863	1060.459269707336	507.548402505968	340.176876378352	1047.234727900002	434.543500313590	333.912883995450	980.310038873494	300.193137319669	298.944762150038	1075.908820357141	207.693853108297	350.209788802852	828.000623295244	391.433809491314	571.441185426127	740.126393059682	302.828747561163	636.297504537607	762.336256539647	201.538038785877	571.859499171965	607.173155855961	46.240334626886	543.581848056619	780.242218773409	96.675566919397	576.398190908132	691.416208432944	37.057442931923	615.897245739680	899.802500647422	40.467037069139	602.167410840218	997.723718165287	36.804883311619	405.823091029908	1062.125499625465	37.338446926199	317.426665633654	1139.115071018863	108.673646552493	330.610954880289	1267.589419913662	69.822884573092	289.967351903450	716.326924495311	1110.849623494123	218.122496146089	686.010141757062	852.163732805670	213.177515453420	1050.768089002810	1096.937993786242	746.009943772094	1272.777011900219	1182.090306811429	672.423391146855	
127	8.769000000000	724.248745573540	998.052606908106	498.780851335257	866.822261555949	1429.818493965220	311.796461350806	995.647668414114	1357.667271342499	451.057096018607	939.012957120772	1424.492302636160	637.845746955701	875.832142753404	1483.289026709742	467.845038125534	957.513774851409	929.895044078092	593.066436574362	919.174080231018	949.398957676638	320.679804781387	948.040676090468	716.262076678575	570.961611426661	840.036160820192	627.017109497029	635.244366448624	896.517030389250	557.061183300814	556.169305052009	872.228648872059	469.837099622255	560.896136351491	992.767452224409	758.768782259708	349.060129506681	929.498451935037	628.117674343020	285.640099225479	1037.105772273142	572.136737944933	340.170430775436	1058.001300160968	505.381597479337	340.231087667385	1044.842891077508	432.338411981300	333.537307600791	977.145156431169	298.423839046004	298.528644964319	1071.468718205548	205.294125891546	350.832194482543	826.716460936392	390.189655358026	569.999548377375	736.953692580399	303.521438661125	635.068368372967	757.487890394500	201.478855151476	571.358996011816	599.947369470571	47.785920931289	543.832851652119	773.500999001260	96.771243659969	576.571535678007	684.215582837169	37.572658639079	615.983156446070	892.618347952448	39.944972707962	602.267963792770	990.144822157004	36.555804318655	406.584803424339	1054.719704517773	36.114586961174	318.214440467075	1133.634897820602	105.310308240245	332.248385376079	1261.464436767667	63.122107990286	291.714131309706	717.964833208925	1109.334148791479	215.037097400818	689.384495735660	850.265535242397	210.423459366028	1048.026595998196	1095.927799562792	744.473535403491	1271.531194994295	1178.609324131696	672.119436139204	
128	8.781214285714	725.493093002611	997.787159885044	495.481368820064	867.737805051898	1429.107804688606	308.133268014779	996.488056759179	1357.556292157073	447.866765732976	939.230961432589	1424.660650127788	634.407287792105	876.465245967309	1483.095654718705	464.023343527338	958.682701690619	929.372409193097	590.454242321946	921.007685897582	949.043745800315	318.032280157260	949.148498882505	715.529937230829	568.620575284579	841.024298070559	626.396001037719	632.807087296018	897.941000969827	556.080536798573	554.095791502266	873.318411945623	467.807003405350	559.291662331481	994.045734799539	757.817268451835	347.099772797723	929.688236922031	627.964941185925	284.034632850188	1036.480719697667	571.255876449677	339.302868602238	1055.709871289063	503.885302928869	339.884830342314	1042.645184307374	430.790698715664	332.813264315396	974.330020737055	297.330826098122	297.443263977762	1067.231783490041	203.570831516480	350.984214003748	825.912619738441	389.084864737871	568.638614629804	734.110327154626	304.548173881016	633.836666995716	752.973628979668	201.711606934646	570.962743657384	592.840230327125	49.947098683772	544.138850686594	767.012479971438	96.918361936636	576.810005533961	677.094364639113	38.370564931001	616.103094986018	885.446628197033	39.439746628792	602.343162755842	982.950657471636	36.607415072085	406.883330219399	1047.733179281553	35.374741703326	318.566336457094	1128.214842575883	102.806615556880	333.368314953270	1255.504041843535	57.909412402000	293.067461890272	720.380268266612	1107.693266632590	211.711198537281	693.730076333301	848.254796997044	207.357043428102	1044.705244234425	1095.105208199593	743.029383659910	1270.235272897423	1173.898570918317	672.077234152555	
